# xmcd CD database file
#
# Track frame offsets:
#	150
#	4478
#	33929
#	59489
#	91369
#	124010
#	154655
#	184324
#	209267
#	236334
#	280288
#
# Disc length: 3842 seconds
#
# Revision: 0
# Processed by: cddbd v1.5.2PL0 Copyright (c) Steve Scherf et al.
# Submitted via: CDex 1.70beta2
#
DISCID=950f000b
DTITLE=Quasimode - Oneself likeness
DYEAR=2007
DGENRE=Jazz
TTITLE0=Catch the fact INTRO
TTITLE1=Down in the village
TTITLE2=Giant black shadow
TTITLE3=1000 days for spirit
TTITLE4=Lucky Luciano
TTITLE5=Ipe Amarelo
TTITLE6=Skeleton coast
TTITLE7=Feelin green
TTITLE8=Oneself - likeness
TTITLE9=Ipe Amarelo (Spiritual south remix)
TTITLE10=Catch the fact OUTRO
EXTD=YEAR: 2007
EXTT0=
EXTT1=
EXTT2=
EXTT3=
EXTT4=
EXTT5=
EXTT6=
EXTT7=
EXTT8=
EXTT9=
EXTT10=
PLAYORDER=
